<?xml version="1.0"?>
<svg xmlns="http://www.w3.org/2000/svg" id="Capa_1" enable-background="new 0 0 511 511" height="512px" viewBox="0 0 511 511" width="512px"><g><g><path d="m300.7 239.668c-14.416 0-29.312 14.87-33.393 20.079l-11.814 15.077-11.805-15.085c-4.425-5.57-19.031-20.072-33.091-20.072-.058 0-.113 0-.171 0-16.721.141-30.325 13.997-30.325 30.889 0 7.89 2.874 14.447 9.041 20.625l66.359 63.406 66.359-63.406c6.167-6.178 9.041-12.735 9.041-20.625-.001-17.032-13.548-30.888-30.201-30.888z" data-original="#000000" class="active-path" data-old_color="#000000" fill="#FFFFFF"/><path d="m441.608 91h-81.108v-34.167c0-31.338-25.496-56.833-56.833-56.833h-96.333c-31.338 0-56.834 25.495-56.834 56.833v34.167h-81.108l-24.111 420h420.438zm-261.108-34.167c0-14.796 12.038-26.833 26.833-26.833h96.333c14.796 0 26.833 12.037 26.833 26.833v34.167h-150v-34.167zm162.422 255.712-.219.214-87.203 83.32-87.422-83.534c-11.929-11.874-17.978-26.001-17.978-41.989 0-33.296 26.949-60.609 60.074-60.887.141-.002.287-.002.428-.002 18.845 0 34.743 10.408 44.913 19.332 10.202-8.921 26.179-19.331 45.185-19.331 33.194 0 60.2 27.314 60.2 60.888 0 15.988-6.049 30.115-17.978 41.989z" data-original="#000000" class="active-path" data-old_color="#000000" fill="#FFFFFF"/></g></g> </svg>
